<svg width="20" height="20" viewBox="0 0 20 20" fill="none" xmlns="http://www.w3.org/2000/svg">
<path d="M1.875 16.875H13.125" stroke="#9E9E9E" stroke-width="1.5" stroke-linecap="round" stroke-linejoin="round"/>
<path d="M1.32254 10.9664L4.26749 13.7273C4.65986 14.0951 5.1604 14.3266 5.69479 14.3874C6.22918 14.4482 6.76893 14.335 7.23389 14.0647L19.0626 7.18755L17.6064 5.40776C17.2286 4.94603 16.6982 4.63462 16.1109 4.52976C15.5236 4.42491 14.9182 4.53354 14.404 4.83601L10.9376 6.87505L6.2501 5.31255L4.96112 5.86497C4.86469 5.9063 4.78021 5.97124 4.71547 6.05381C4.65074 6.13638 4.60783 6.23391 4.5907 6.33742C4.57358 6.44093 4.58278 6.54709 4.61748 6.6461C4.65217 6.74512 4.71123 6.83381 4.78922 6.904L7.1876 9.06255L5.0001 10.3126L2.8126 9.37505L1.5038 9.93597C1.40835 9.97687 1.3246 10.0409 1.26012 10.1223C1.19563 10.2037 1.15244 10.2999 1.13445 10.4022C1.11646 10.5044 1.12424 10.6096 1.15707 10.7081C1.18991 10.8066 1.24678 10.8954 1.32254 10.9664V10.9664Z" stroke="#9E9E9E" stroke-width="1.5" stroke-linecap="round" stroke-linejoin="round"/>
</svg>
