<svg viewBox="0 0 25 24" fill="none" xmlns="http://www.w3.org/2000/svg">
<path d="M11.6785 1.47885H8.67848C8.56751 1.47885 8.45793 1.50348 8.35763 1.55095C8.25733 1.59842 8.16881 1.66755 8.09846 1.75337C8.02811 1.83919 7.97768 1.93955 7.9508 2.04721C7.92392 2.15488 7.92127 2.26716 7.94304 2.37598L9.26364 8.97885L6.73601 8.97885L5.45505 7.71588C5.3147 7.57755 5.12555 7.5 4.92848 7.5H2.67848C2.55592 7.49999 2.43522 7.53002 2.32695 7.58746C2.21868 7.64491 2.12614 7.72801 2.05743 7.8295C1.98871 7.93099 1.94592 8.04777 1.93279 8.16963C1.91967 8.29149 1.93661 8.41471 1.98213 8.5285L3.37071 12L1.98213 15.4715C1.93661 15.5853 1.91967 15.7085 1.9328 15.8304C1.94593 15.9522 1.98872 16.069 2.05743 16.1705C2.12615 16.272 2.21869 16.3551 2.32695 16.4125C2.43522 16.47 2.55592 16.5 2.67848 16.5H4.92848C5.12738 16.5 5.31814 16.421 5.4588 16.2804L6.73917 15H9.26364L7.94304 21.6029C7.92127 21.7117 7.92392 21.824 7.9508 21.9316C7.97767 22.0393 8.02811 22.1397 8.09846 22.2255C8.16881 22.3113 8.25733 22.3804 8.35763 22.4279C8.45793 22.4754 8.56751 22.5 8.67848 22.5H11.6785C11.8178 22.5 11.9543 22.4612 12.0728 22.388C12.1912 22.3148 12.287 22.21 12.3493 22.0854L15.8926 14.9989L19.9302 14.9895C20.7259 14.9892 21.4888 14.6729 22.0513 14.1102C22.6137 13.5474 22.9296 12.7843 22.9294 11.9886C22.9291 11.193 22.6128 10.43 22.0501 9.86754C21.4873 9.30509 20.7241 8.98924 19.9285 8.98947L15.8926 8.97995L12.3493 1.8934C12.287 1.76883 12.1912 1.66406 12.0728 1.59085C11.9543 1.51763 11.8178 1.47885 11.6785 1.47885Z" fill="currentColor"/>
</svg>
