<svg width="25" height="24" viewBox="0 0 25 24" fill="none" xmlns="http://www.w3.org/2000/svg">
<path d="M12.4279 1.49973C10.2407 1.50232 8.14378 2.37235 6.59717 3.91896C5.05056 5.46557 4.18053 7.56249 4.17793 9.74973C4.17793 16.8088 11.6779 22.1408 11.9973 22.3642C12.1236 22.4524 12.2739 22.4997 12.4279 22.4997C12.582 22.4997 12.7323 22.4524 12.8586 22.3642C13.1779 22.1408 20.6779 16.8088 20.6779 9.74973C20.6753 7.56249 19.8053 5.46557 18.2587 3.91896C16.7121 2.37235 14.6152 1.50232 12.4279 1.49973ZM12.4285 6.75C13.0218 6.75 13.6018 6.92594 14.0952 7.25559C14.5885 7.58523 14.9731 8.05377 15.2001 8.60195C15.4272 9.15013 15.4866 9.75333 15.3708 10.3353C15.2551 10.9172 14.9694 11.4518 14.5498 11.8713C14.1302 12.2909 13.5957 12.5766 13.0138 12.6924C12.4318 12.8081 11.8286 12.7487 11.2804 12.5216C10.7323 12.2946 10.2637 11.9101 9.93407 11.4167C9.60443 10.9234 9.42848 10.3433 9.42848 9.75C9.42847 9.35603 9.50606 8.96592 9.65682 8.60193C9.80758 8.23795 10.0286 7.90723 10.3071 7.62865C10.5857 7.35007 10.9164 7.1291 11.2804 6.97834C11.6444 6.82758 12.0345 6.74999 12.4285 6.75Z" fill="#1cb78d"/>
</svg>
