<svg width="0" height="0" class="hidden">
  <symbol fill="none" xmlns="http://www.w3.org/2000/svg" viewBox="0 0 20 20" id="AirplaneLanding">
    <path d="M7.5 16.875H18.75" stroke="#9E9E9E" stroke-width="1.5" stroke-linecap="round" stroke-linejoin="round"></path>
    <path d="M1.875 8.1039V3.99219C1.875 3.89316 1.89853 3.79554 1.94366 3.70739C1.98879 3.61923 2.05422 3.54307 2.13456 3.48516C2.2149 3.42726 2.30784 3.38927 2.40574 3.37434C2.50364 3.3594 2.60369 3.36794 2.69764 3.39926L3.75 3.75005L5 6.0938L7.5 6.87505V3.99219C7.5 3.89316 7.52353 3.79554 7.56866 3.70739C7.61379 3.61923 7.67922 3.54307 7.75956 3.48516C7.8399 3.42726 7.93284 3.38927 8.03074 3.37434C8.12864 3.3594 8.22869 3.36794 8.32264 3.39926L9.375 3.75005L11.875 8.12505L15.6691 9.17897C16.1956 9.32521 16.6597 9.63992 16.9903 10.0749C17.321 10.51 17.5 11.0413 17.5 11.5878V14.375L3.70093 10.5113C3.17559 10.3642 2.71279 10.0493 2.38312 9.61466C2.05345 9.18 1.875 8.64943 1.875 8.1039V8.1039Z" stroke="#9E9E9E" stroke-width="1.5" stroke-linecap="round" stroke-linejoin="round"></path>
  </symbol>
  <symbol fill="none" xmlns="http://www.w3.org/2000/svg" viewBox="0 0 20 20" id="AirplaneTakeoff">
    <path d="M1.875 16.875H13.125" stroke="#9E9E9E" stroke-width="1.5" stroke-linecap="round" stroke-linejoin="round"></path>
    <path d="M1.32254 10.9664L4.26749 13.7273C4.65986 14.0951 5.1604 14.3266 5.69479 14.3874C6.22918 14.4482 6.76893 14.335 7.23389 14.0647L19.0626 7.18755L17.6064 5.40776C17.2286 4.94603 16.6982 4.63462 16.1109 4.52976C15.5236 4.42491 14.9182 4.53354 14.404 4.83601L10.9376 6.87505L6.2501 5.31255L4.96112 5.86497C4.86469 5.9063 4.78021 5.97124 4.71547 6.05381C4.65074 6.13638 4.60783 6.23391 4.5907 6.33742C4.57358 6.44093 4.58278 6.54709 4.61748 6.6461C4.65217 6.74512 4.71123 6.83381 4.78922 6.904L7.1876 9.06255L5.0001 10.3126L2.8126 9.37505L1.5038 9.93597C1.40835 9.97687 1.3246 10.0409 1.26012 10.1223C1.19563 10.2037 1.15244 10.2999 1.13445 10.4022C1.11646 10.5044 1.12424 10.6096 1.15707 10.7081C1.18991 10.8066 1.24678 10.8954 1.32254 10.9664V10.9664Z" stroke="#9E9E9E" stroke-width="1.5" stroke-linecap="round" stroke-linejoin="round"></path>
  </symbol>
  <symbol fill="none" xmlns="http://www.w3.org/2000/svg" viewBox="0 0 25 24" id="arrowcircleright">
    <path d="M12.2856 21C17.2562 21 21.2856 16.9706 21.2856 12C21.2856 7.02944 17.2562 3 12.2856 3C7.31508 3 3.28564 7.02944 3.28564 12C3.28564 16.9706 7.31508 21 12.2856 21Z" stroke="#1CB78D" stroke-width="1.5" stroke-linecap="round" stroke-linejoin="round"></path>
    <path d="M12.8537 15.182L16.0356 12L12.8537 8.81803" stroke="#1CB78D" stroke-width="1.5" stroke-linecap="round" stroke-linejoin="round"></path>
    <path d="M8.53564 12H16.0356" stroke="#1CB78D" stroke-width="1.5" stroke-linecap="round" stroke-linejoin="round"></path>
  </symbol>
  <symbol fill="none" xmlns="http://www.w3.org/2000/svg" viewBox="0 0 20 20" id="ArrowsLeftRight">
    <path d="M15 11.25L17.5 13.75L15 16.25" stroke="#9E9E9E" stroke-width="1.5" stroke-linecap="round" stroke-linejoin="round"></path>
    <path d="M2.5 13.75H17.5" stroke="#9E9E9E" stroke-width="1.5" stroke-linecap="round" stroke-linejoin="round"></path>
    <path d="M5 8.75L2.5 6.25L5 3.75" stroke="#9E9E9E" stroke-width="1.5" stroke-linecap="round" stroke-linejoin="round"></path>
    <path d="M17.5 6.25H2.5" stroke="#9E9E9E" stroke-width="1.5" stroke-linecap="round" stroke-linejoin="round"></path>
  </symbol>
  <symbol fill="none" xmlns="http://www.w3.org/2000/svg" viewBox="0 0 24 24" id="building">
    <path d="M1.5 20.2484H22.5" stroke="#1B1B1B" stroke-opacity="0.96" stroke-width="1.5" stroke-linecap="round" stroke-linejoin="round"></path>
    <path d="M13.499 20.2484V3.74841C13.499 3.5495 13.42 3.35874 13.2794 3.21808C13.1387 3.07743 12.9479 2.99841 12.749 2.99841H3.74902C3.55011 2.99841 3.35935 3.07743 3.21869 3.21808C3.07804 3.35874 2.99902 3.5495 2.99902 3.74841V20.2484" stroke="#1B1B1B" stroke-opacity="0.96" stroke-width="1.5" stroke-linecap="round" stroke-linejoin="round"></path>
    <path d="M20.999 20.2484V9.74841C20.999 9.5495 20.92 9.35874 20.7794 9.21808C20.6387 9.07743 20.4479 8.99841 20.249 8.99841H13.499" stroke="#1B1B1B" stroke-opacity="0.96" stroke-width="1.5" stroke-linecap="round" stroke-linejoin="round"></path>
    <path d="M5.99902 6.74841H8.99902" stroke="#1B1B1B" stroke-opacity="0.96" stroke-width="1.5" stroke-linecap="round" stroke-linejoin="round"></path>
    <path d="M7.49902 12.7484H10.499" stroke="#1B1B1B" stroke-opacity="0.96" stroke-width="1.5" stroke-linecap="round" stroke-linejoin="round"></path>
    <path d="M5.99902 16.4984H8.99902" stroke="#616161" stroke-width="1.5" stroke-linecap="round" stroke-linejoin="round"></path>
    <path d="M16.499 16.4984H17.999" stroke="#616161" stroke-width="1.5" stroke-linecap="round" stroke-linejoin="round"></path>
    <path d="M16.499 12.7484H17.999" stroke="#616161" stroke-width="1.5" stroke-linecap="round" stroke-linejoin="round"></path>
  </symbol>
  <symbol fill="none" xmlns="http://www.w3.org/2000/svg" viewBox="0 0 24 24" id="globe">
    <path d="M12 21C16.9706 21 21 16.9706 21 12C21 7.02944 16.9706 3 12 3C7.02944 3 3 7.02944 3 12C3 16.9706 7.02944 21 12 21Z" stroke="white" stroke-width="1.5" stroke-linecap="round" stroke-linejoin="round"></path>
    <path d="M3.5127 9H20.4875" stroke="white" stroke-width="1.5" stroke-linecap="round" stroke-linejoin="round"></path>
    <path d="M3.5127 15H20.4874" stroke="white" stroke-width="1.5" stroke-linecap="round" stroke-linejoin="round"></path>
    <path d="M12 20.7585C14.0711 20.7585 15.75 16.8372 15.75 12.0001C15.75 7.16297 14.0711 3.2417 12 3.2417C9.92893 3.2417 8.25 7.16297 8.25 12.0001C8.25 16.8372 9.92893 20.7585 12 20.7585Z" stroke="white" stroke-width="1.5" stroke-linecap="round" stroke-linejoin="round"></path>
  </symbol>
  <symbol fill="none" xmlns="http://www.w3.org/2000/svg" viewBox="0 0 24 24" id="heart">
    <path d="M12.001 20.25C12.001 20.25 2.62598 15 2.62598 8.62501C2.62617 7.49826 3.01659 6.40635 3.73086 5.53493C4.44514 4.66351 5.43917 4.06636 6.54397 3.84501C7.64876 3.62367 8.79612 3.79179 9.79097 4.32079C10.7858 4.84979 11.5667 5.70702 12.001 6.74673L12.001 6.74673C12.4352 5.70702 13.2161 4.84979 14.211 4.32079C15.2058 3.79179 16.3532 3.62367 17.458 3.84501C18.5628 4.06636 19.5568 4.66351 20.2711 5.53493C20.9854 6.40635 21.3758 7.49826 21.376 8.62501C21.376 15 12.001 20.25 12.001 20.25Z" stroke="white" stroke-width="1.5" stroke-linecap="round" stroke-linejoin="round"></path>
  </symbol>
  <symbol fill="none" xmlns="http://www.w3.org/2000/svg" viewBox="0 0 24 24" id="calendar">
    <path d="M19.5 3.75H4.5C4.08579 3.75 3.75 4.08579 3.75 4.5V19.5C3.75 19.9142 4.08579 20.25 4.5 20.25H19.5C19.9142 20.25 20.25 19.9142 20.25 19.5V4.5C20.25 4.08579 19.9142 3.75 19.5 3.75Z" stroke="#616161" stroke-width="1.5" stroke-linecap="round" stroke-linejoin="round"></path>
    <path d="M16.5 2.25V5.25" stroke="#616161" stroke-width="1.5" stroke-linecap="round" stroke-linejoin="round"></path>
    <path d="M7.5 2.25V5.25" stroke="#616161" stroke-width="1.5" stroke-linecap="round" stroke-linejoin="round"></path>
    <path d="M3.75 8.25H20.25" stroke="#616161" stroke-width="1.5" stroke-linecap="round" stroke-linejoin="round"></path>
  </symbol>
  <symbol fill="none" xmlns="http://www.w3.org/2000/svg" viewBox="0 0 24 24" id="car">
    <path d="M1.5 11.25H22.5" stroke="#1B1B1B" stroke-opacity="0.96" stroke-width="1.5" stroke-linecap="round" stroke-linejoin="round"></path>
    <path d="M21 17.25V19.5C21 19.6989 20.921 19.8897 20.7803 20.0303C20.6397 20.171 20.4489 20.25 20.25 20.25H18C17.8011 20.25 17.6103 20.171 17.4697 20.0303C17.329 19.8897 17.25 19.6989 17.25 19.5V17.25" stroke="#1B1B1B" stroke-opacity="0.96" stroke-width="1.5" stroke-linecap="round" stroke-linejoin="round"></path>
    <path d="M6.75 17.25V19.5C6.75 19.6989 6.67098 19.8897 6.53033 20.0303C6.38968 20.171 6.19891 20.25 6 20.25H3.75C3.55109 20.25 3.36032 20.171 3.21967 20.0303C3.07902 19.8897 3 19.6989 3 19.5V17.25" stroke="#1B1B1B" stroke-opacity="0.96" stroke-width="1.5" stroke-linecap="round" stroke-linejoin="round"></path>
    <path d="M6 14.25H7.5" stroke="#1B1B1B" stroke-opacity="0.96" stroke-width="1.5" stroke-linecap="round" stroke-linejoin="round"></path>
    <path d="M16.5 14.25H18" stroke="#1B1B1B" stroke-opacity="0.96" stroke-width="1.5" stroke-linecap="round" stroke-linejoin="round"></path>
    <path d="M21 11.25L18.198 4.9454C18.139 4.81282 18.0429 4.70018 17.9213 4.62113C17.7996 4.54208 17.6577 4.5 17.5126 4.5H6.48741C6.34233 4.5 6.20037 4.54208 6.07872 4.62113C5.95708 4.70018 5.86097 4.81282 5.80205 4.9454L3 11.25V17.25H21V11.25Z" stroke="#1B1B1B" stroke-opacity="0.96" stroke-width="1.5" stroke-linecap="round" stroke-linejoin="round"></path>
  </symbol>
  <symbol fill="none" xmlns="http://www.w3.org/2000/svg" viewBox="0 0 24 24" id="flight">
    <path d="M19.6441 7.53773L16.4893 10.5L19.4893 18.75L17.2393 21L12.7573 14.4395L10.4893 16.5V18.75L8.23926 21L6.90872 17.0762L2.98926 15.75L5.23926 13.5H7.48926L9.73926 11.25L2.98926 6.75004L5.23926 4.50004L13.4893 7.50004L16.4621 4.35575L16.3983 4.40905C16.6071 4.19974 16.8552 4.03365 17.1283 3.92027C17.4013 3.80689 17.6941 3.74845 17.9898 3.74829C18.2855 3.74813 18.5783 3.80625 18.8515 3.91933C19.1247 4.0324 19.3729 4.19822 19.582 4.4073C19.7911 4.61638 19.9569 4.86462 20.07 5.13783C20.183 5.41103 20.2412 5.70385 20.241 5.99953C20.2408 6.29521 20.1824 6.58796 20.069 6.86104C19.9556 7.13412 19.7896 7.38218 19.5802 7.59103L19.6441 7.53773Z" stroke="#1B1B1B" stroke-opacity="0.96" stroke-width="1.5" stroke-linecap="round" stroke-linejoin="round"></path>
  </symbol>
  <symbol fill="none" xmlns="http://www.w3.org/2000/svg" viewBox="0 0 24 24" id="instagram-outline">
    <path d="M12 15.75C14.0711 15.75 15.75 14.0711 15.75 12C15.75 9.92893 14.0711 8.25 12 8.25C9.92893 8.25 8.25 9.92893 8.25 12C8.25 14.0711 9.92893 15.75 12 15.75Z" stroke="white" stroke-width="1.5" stroke-miterlimit="10"></path>
    <path d="M16.125 3.375H7.875C5.38972 3.375 3.375 5.38972 3.375 7.875V16.125C3.375 18.6103 5.38972 20.625 7.875 20.625H16.125C18.6103 20.625 20.625 18.6103 20.625 16.125V7.875C20.625 5.38972 18.6103 3.375 16.125 3.375Z" stroke="white" stroke-width="1.5" stroke-linecap="round" stroke-linejoin="round"></path>
    <path d="M16.875 8.25C17.4963 8.25 18 7.74632 18 7.125C18 6.50368 17.4963 6 16.875 6C16.2537 6 15.75 6.50368 15.75 7.125C15.75 7.74632 16.2537 8.25 16.875 8.25Z" fill="white"></path>
  </symbol>
  <symbol fill="none" xmlns="http://www.w3.org/2000/svg" viewBox="0 0 24 24" id="facebook-outline">
    <path d="M12 21C16.9706 21 21 16.9706 21 12C21 7.02944 16.9706 3 12 3C7.02944 3 3 7.02944 3 12C3 16.9706 7.02944 21 12 21Z" stroke="white" stroke-width="1.5" stroke-linecap="round" stroke-linejoin="round"></path>
    <path d="M15.75 8.25006H14.25C13.6533 8.25006 13.081 8.48711 12.659 8.90907C12.2371 9.33103 12 9.90332 12 10.5001V21.0001" stroke="white" stroke-width="1.5" stroke-linecap="round" stroke-linejoin="round"></path>
    <path d="M9 13.5001H15" stroke="white" stroke-width="1.5" stroke-linecap="round" stroke-linejoin="round"></path>
  </symbol>
  <symbol fill="none" xmlns="http://www.w3.org/2000/svg" viewBox="0 0 24 25" id="facemask">
    <path d="M20.25 13.25C20.25 18.0786 13.2713 19.7351 12.1509 19.9699C12.0514 19.9909 11.9486 19.9909 11.8491 19.9699C10.7287 19.7351 3.75 18.0786 3.75 13.25V7.77537C3.75 7.62142 3.79738 7.47119 3.8857 7.3451C3.97402 7.219 4.09901 7.12314 4.24369 7.07052L11.7437 4.34325C11.9093 4.28304 12.0907 4.28304 12.2563 4.34325L19.7563 7.07052C19.901 7.12314 20.026 7.219 20.1143 7.3451C20.2026 7.47119 20.25 7.62142 20.25 7.77537V13.25Z" stroke="#1B1B1B" stroke-opacity="0.96" stroke-width="1.5" stroke-linecap="round" stroke-linejoin="round"></path>
    <path d="M8.25 11H15.75" stroke="#1B1B1B" stroke-opacity="0.96" stroke-width="1.5" stroke-linecap="round" stroke-linejoin="round"></path>
    <path d="M8.25 14H15.75" stroke="#1B1B1B" stroke-opacity="0.96" stroke-width="1.5" stroke-linecap="round" stroke-linejoin="round"></path>
    <path d="M20.0068 14.75H20.9997C21.5964 14.75 22.1687 14.5129 22.5907 14.091C23.0126 13.669 23.2497 13.0967 23.2497 12.5V10.25C23.2497 9.65326 23.0126 9.08097 22.5907 8.65901C22.1687 8.23705 21.5964 8 20.9997 8H20.2497" stroke="#1B1B1B" stroke-opacity="0.96" stroke-width="1.5" stroke-linecap="round" stroke-linejoin="round"></path>
    <path d="M3.99293 14.75H3C2.40326 14.75 1.83097 14.5129 1.40901 14.091C0.987053 13.669 0.75 13.0967 0.75 12.5V10.25C0.75 9.65326 0.987053 9.08097 1.40901 8.65901C1.83097 8.23705 2.40326 8 3 8H3.75" stroke="#1B1B1B" stroke-opacity="0.96" stroke-width="1.5" stroke-linecap="round" stroke-linejoin="round"></path>
  </symbol>
  <symbol fill="none" xmlns="http://www.w3.org/2000/svg" viewBox="0 0 146 26" id="logo">
    <path d="M20.9015 11.5738C20.2943 9.64116 18.4894 8.23853 16.3565 8.23853C16.2288 8.23853 16.102 8.24404 15.9762 8.25322C13.5236 8.44704 11.5938 10.4991 11.5938 13.0022C11.5938 15.632 13.7257 17.7649 16.3565 17.7649C16.6293 17.7649 16.8966 17.7419 17.1574 17.6978C19.3188 17.3322 20.9842 15.5107 21.1109 13.2777C21.1164 13.1868 21.1192 13.0949 21.1192 13.0022C21.1192 12.5043 21.0429 12.0248 20.9015 11.5738ZM18.3507 13.23C18.2368 14.2294 17.3862 15.0092 16.3565 15.0092C15.2496 15.0092 14.3494 14.1081 14.3494 13.0022C14.3494 11.8962 15.2496 10.9942 16.3565 10.9942C17.2135 10.9942 17.9474 11.5352 18.234 12.293C18.3176 12.5135 18.3635 12.7523 18.3635 13.0022C18.3635 13.0793 18.3589 13.1556 18.3507 13.23Z" fill="#1CB78D"></path>
    <path d="M39.2159 11.5738C38.6088 9.64116 36.8038 8.23853 34.6709 8.23853C34.5432 8.23853 34.4165 8.24404 34.2906 8.25322C31.8381 8.44704 29.9082 10.4991 29.9082 13.0022C29.9082 15.632 32.0402 17.7649 34.6709 17.7649C34.9437 17.7649 35.211 17.7419 35.4719 17.6978C37.6333 17.3322 39.2986 15.5107 39.4254 13.2777C39.4309 13.1868 39.4336 13.0949 39.4336 13.0022C39.4336 12.5043 39.3574 12.0248 39.2159 11.5738ZM36.6651 13.23C36.5512 14.2294 35.7006 15.0092 34.6709 15.0092C33.5641 15.0092 32.6639 14.1081 32.6639 13.0022C32.6639 11.8962 33.5641 10.9942 34.6709 10.9942C35.5279 10.9942 36.2619 11.5352 36.5485 12.293C36.632 12.5135 36.678 12.7523 36.678 13.0022C36.678 13.0793 36.6734 13.1556 36.6651 13.23Z" fill="#F0F8F0"></path>
    <path d="M128.45 11.5738C127.843 9.64116 126.038 8.23853 123.905 8.23853C123.778 8.23853 123.651 8.24404 123.525 8.25322C121.072 8.44704 119.143 10.4991 119.143 13.0022C119.143 15.632 121.275 17.7649 123.905 17.7649C124.178 17.7649 124.445 17.7419 124.706 17.6978C126.868 17.3322 128.533 15.5107 128.66 13.2777C128.665 13.1868 128.668 13.0949 128.668 13.0022C128.668 12.5043 128.592 12.0248 128.45 11.5738ZM125.899 13.23C125.786 14.2294 124.935 15.0092 123.905 15.0092C122.798 15.0092 121.898 14.1081 121.898 13.0022C121.898 11.8962 122.798 10.9942 123.905 10.9942C124.762 10.9942 125.496 11.5352 125.783 12.293C125.866 12.5135 125.912 12.7523 125.912 13.0022C125.912 13.0793 125.908 13.1556 125.899 13.23Z" fill="#F0F8F0"></path>
    <path d="M26.8912 6.65319C27.1098 6.42814 27.4185 6.31608 27.818 6.31608C28.0302 6.31608 28.2112 6.35099 28.3609 6.41896C28.5106 6.48785 28.642 6.5843 28.7541 6.70922L30.57 4.87395C30.2201 4.52489 29.8113 4.24382 29.3438 4.03163C28.8753 3.81944 28.3297 3.71289 27.706 3.71289C26.8949 3.71289 26.183 3.88833 25.5713 4.23739C24.9595 4.58736 24.491 5.05858 24.1668 5.65105C23.8416 6.24443 23.6799 6.91498 23.6799 7.6636V8.43152H21.6582V10.8841H23.6799V17.5307H26.5633V10.885H29.1656V8.43244H26.5633V7.57083C26.5633 7.18412 26.6726 6.87824 26.8912 6.65319Z" fill="#F0F8F0"></path>
    <path d="M46.2785 8.24512C45.292 8.24512 44.5149 8.53906 43.9472 9.12509C43.9445 9.12877 43.9408 9.13152 43.938 9.1352V8.4325H41.0547V17.5317H43.938V12.5513C43.938 11.9644 44.0786 11.5244 44.3597 11.2313C44.6407 10.9383 45.0247 10.7914 45.5115 10.7914C45.7485 10.7914 45.9607 10.829 46.1481 10.9034C46.3355 10.9787 46.4852 11.0779 46.5973 11.2029L48.3012 9.0314C48.0513 8.76961 47.7611 8.57304 47.4304 8.44169C47.0997 8.31033 46.7158 8.24512 46.2785 8.24512Z" fill="#F0F8F0"></path>
    <path d="M54.4613 13.6562C54.4613 14.1311 54.3401 14.505 54.0967 14.7796C53.8533 15.0542 53.5189 15.1911 53.0945 15.1911C52.807 15.1911 52.5581 15.1287 52.3459 15.0037C52.1337 14.8788 51.9711 14.7015 51.8591 14.47C51.747 14.2395 51.691 13.9676 51.691 13.6553V8.43237H48.8076V13.6939C48.8076 14.4802 48.9886 15.1764 49.3505 15.7817C49.7124 16.3871 50.2213 16.8647 50.8762 17.2138C51.5311 17.5628 52.2715 17.7383 53.0945 17.7383C53.9176 17.7383 54.6864 17.5665 55.3229 17.223C55.9595 16.8794 56.4555 16.4054 56.8119 15.8001C57.1674 15.1948 57.3456 14.493 57.3456 13.6939V8.43237H54.4623V13.6562H54.4613Z" fill="#F0F8F0"></path>
    <path d="M71.8918 8.68505C71.3426 8.39203 70.7244 8.24506 70.0382 8.24506C69.352 8.24506 68.6833 8.39478 68.1092 8.69423C67.7225 8.8954 67.3918 9.1581 67.1126 9.47776C66.8508 9.15167 66.5376 8.88346 66.1711 8.67494C65.6659 8.38835 65.101 8.24414 64.4763 8.24414C63.7902 8.24414 63.1812 8.38468 62.6512 8.66576C62.4142 8.7916 62.1992 8.94133 62.0054 9.11401V8.43153H59.1221V17.5308H62.0054V12.2132C62.0054 11.9138 62.0706 11.6575 62.202 11.4453C62.3333 11.2331 62.5106 11.0678 62.7357 10.9493C62.9607 10.8308 63.2161 10.7711 63.5036 10.7711C63.9151 10.7711 64.2614 10.8988 64.5425 11.155C64.8236 11.4113 64.9641 11.7631 64.9641 12.2132V17.5308H67.8474V12.2132C67.8474 11.9138 67.9099 11.6575 68.0348 11.4453C68.1598 11.2331 68.337 11.0678 68.5685 10.9493C68.7991 10.8308 69.0517 10.7711 69.3272 10.7711C69.7268 10.7711 70.0667 10.8988 70.3478 11.155C70.6288 11.4113 70.7694 11.7631 70.7694 12.2132V17.5308H73.6527V11.8761C73.6527 11.1146 73.4966 10.4661 73.1843 9.92877C72.8719 9.39234 72.4411 8.97715 71.8918 8.68321V8.68505Z" fill="#F0F8F0"></path>
    <path d="M81.8435 8.44169C81.5128 8.31033 81.1288 8.24512 80.6916 8.24512C79.7051 8.24512 78.928 8.53906 78.3603 9.12509C78.3576 9.12877 78.3539 9.13152 78.3511 9.1352V8.4325H75.4678V17.5317H78.3511V12.5513C78.3511 11.9644 78.4917 11.5244 78.7727 11.2313C79.0538 10.9383 79.4378 10.7914 79.9246 10.7914C80.1616 10.7914 80.3738 10.829 80.5612 10.9034C80.7486 10.9787 80.8983 11.0779 81.0103 11.2029L82.7143 9.0314C82.4644 8.76961 82.1742 8.57304 81.8435 8.44169Z" fill="#F0F8F0"></path>
    <path d="M89.5103 9.1848C89.2651 8.95149 88.9812 8.75675 88.6579 8.6006C88.1647 8.36361 87.6126 8.24512 87.0008 8.24512C86.164 8.24512 85.4191 8.44812 84.7632 8.8532C84.1083 9.2592 83.5902 9.82044 83.209 10.5378C82.8278 11.2561 82.6377 12.07 82.6377 12.9812C82.6377 13.8924 82.8278 14.7007 83.209 15.4062C83.5893 16.1116 84.1111 16.6729 84.7724 17.0917C85.4338 17.5097 86.1769 17.7191 87.0008 17.7191C87.6245 17.7191 88.183 17.6006 88.6763 17.3636C88.9932 17.2112 89.2706 17.0219 89.5094 16.795V17.5326H92.3367V8.4325H89.5094V9.1848H89.5103ZM87.6007 15.1168C87.2139 15.1168 86.8676 15.0268 86.5618 14.8449C86.2559 14.664 86.0125 14.4114 85.8315 14.0862C85.6506 13.762 85.5596 13.3936 85.5596 12.9812C85.5596 12.5688 85.6496 12.2013 85.8315 11.8762C86.0125 11.5519 86.2559 11.2993 86.5618 11.1184C86.8676 10.9374 87.2139 10.8465 87.6007 10.8465C87.9874 10.8465 88.3557 10.9374 88.668 11.1184C88.9794 11.2993 89.2173 11.5492 89.3799 11.867C89.5416 12.1848 89.6233 12.5504 89.6233 12.9619C89.6233 13.5985 89.4387 14.1165 89.0713 14.5161C88.7029 14.9157 88.2133 15.115 87.6016 15.115L87.6007 15.1168Z" fill="#F0F8F0"></path>
    <path d="M101.55 8.68515C101.013 8.39213 100.389 8.24516 99.6776 8.24516C98.9667 8.24516 98.3797 8.39213 97.8424 8.68515C97.6155 8.80915 97.4106 8.95612 97.2242 9.12422V3.93896H94.3408V17.5318H97.2242V12.3456C97.2242 12.0333 97.2931 11.7586 97.4299 11.5217C97.5668 11.2847 97.7542 11.1 97.9921 10.9696C98.2291 10.8382 98.4973 10.773 98.7977 10.773C99.2468 10.773 99.6216 10.92 99.9211 11.213C100.221 11.506 100.37 11.8845 100.37 12.3456V17.5318H103.254V11.709C103.254 11.0229 103.104 10.4203 102.804 9.90224C102.505 9.38417 102.086 8.97909 101.55 8.68515Z" fill="#F0F8F0"></path>
    <path d="M106.867 14.2734C106.367 14.2734 105.959 14.4388 105.641 14.7695C105.323 15.1001 105.163 15.5089 105.163 15.9957C105.163 16.4826 105.322 16.8941 105.641 17.2312C105.959 17.5683 106.368 17.7364 106.867 17.7364C107.366 17.7364 107.775 17.5683 108.093 17.2312C108.411 16.8941 108.571 16.4826 108.571 15.9957C108.571 15.5089 108.412 15.1001 108.093 14.7695C107.775 14.4388 107.366 14.2734 106.867 14.2734Z" fill="#F0F8F0"></path>
    <path d="M115.883 14.9293C115.59 15.0542 115.255 15.1167 114.88 15.1167C114.506 15.1167 114.137 15.0266 113.813 14.8448C113.488 14.6638 113.235 14.4112 113.055 14.086C112.874 13.7618 112.783 13.387 112.783 12.9626C112.783 12.5383 112.873 12.1855 113.055 11.8677C113.236 11.5499 113.486 11.3001 113.804 11.1191C114.122 10.9381 114.481 10.8472 114.88 10.8472C115.242 10.8472 115.564 10.9032 115.845 11.0153C116.126 11.1274 116.372 11.3028 116.584 11.5398L118.438 9.66778C117.976 9.1938 117.449 8.83465 116.856 8.59123C116.263 8.34781 115.604 8.22656 114.881 8.22656C113.932 8.22656 113.077 8.43232 112.316 8.84475C111.554 9.25626 110.955 9.82118 110.518 10.5395C110.081 11.2578 109.863 12.0716 109.863 12.9829C109.863 13.8941 110.078 14.6932 110.509 15.417C110.94 16.1408 111.536 16.7085 112.297 17.1209C113.059 17.5325 113.914 17.7391 114.862 17.7391C115.611 17.7391 116.282 17.6115 116.875 17.3552C117.467 17.0998 118.007 16.7214 118.494 16.2226L116.64 14.3873C116.428 14.6243 116.176 14.8053 115.883 14.9302V14.9293Z" fill="#F0F8F0"></path>
    <path d="M144.35 9.92963C144.038 9.3932 143.607 8.97801 143.058 8.68407C142.509 8.39105 141.89 8.24408 141.204 8.24408C140.518 8.24408 139.849 8.39381 139.275 8.69326C138.889 8.89442 138.558 9.15713 138.279 9.47679C138.017 9.1507 137.704 8.88248 137.337 8.67397C136.832 8.38738 136.267 8.24316 135.642 8.24316C134.956 8.24316 134.347 8.3837 133.817 8.66478C133.58 8.79062 133.365 8.94035 133.171 9.11304V8.43055H130.288V17.5298H133.171V12.2122C133.171 11.9128 133.237 11.6565 133.368 11.4443C133.499 11.2321 133.677 11.0668 133.902 10.9483C134.127 10.8298 134.382 10.7701 134.67 10.7701C135.081 10.7701 135.427 10.8978 135.708 11.1541C135.99 11.4103 136.13 11.7622 136.13 12.2122V17.5298H139.013V12.2122C139.013 11.9128 139.076 11.6565 139.201 11.4443C139.326 11.2321 139.503 11.0668 139.735 10.9483C139.965 10.8298 140.218 10.7701 140.493 10.7701C140.893 10.7701 141.233 10.8978 141.514 11.1541C141.795 11.4103 141.935 11.7622 141.935 12.2122V17.5298H144.819V11.8751C144.819 11.1137 144.663 10.4652 144.35 9.9278V9.92963Z" fill="#F0F8F0"></path>
    <path d="M10.4616 18.1718C10.4616 20.9146 8.23777 23.1384 5.49496 23.1384C2.75215 23.1384 0.52832 20.9146 0.52832 18.1718H3.03506C3.03506 19.5303 4.13641 20.6317 5.49496 20.6317C6.45669 20.6317 7.28982 20.0796 7.69398 19.2759C8.50691 19.0894 9.24267 18.7036 9.84892 18.1718C10.0574 17.989 10.2503 17.7887 10.4258 17.5747C10.4497 17.7704 10.4616 17.9697 10.4616 18.1718Z" fill="#1CB78D"></path>
    <path d="M5.49496 10.7453C4.13641 10.7453 3.03506 11.8466 3.03506 13.2052C3.03506 13.4155 3.0617 13.6185 3.1113 13.8132C3.38228 14.8779 4.34676 15.6641 5.49496 15.6641C6.64315 15.6641 7.60856 14.8769 7.87953 13.8132C7.92913 13.6185 7.95577 13.4146 7.95577 13.2052H10.4625C10.4625 14.1099 10.2209 14.9578 9.79748 15.688C9.35749 16.4495 8.72001 17.0833 7.95577 17.5196C7.93097 17.5343 7.90525 17.5481 7.87953 17.5619C7.17224 17.9504 6.35932 18.1709 5.49496 18.1709C4.6306 18.1709 3.81859 17.9504 3.1113 17.5619C2.84308 17.4149 2.59048 17.245 2.35625 17.053C1.89146 16.6736 1.49556 16.2107 1.19336 15.688C0.770819 14.9578 0.52832 14.109 0.52832 13.2052C0.52832 12.3013 0.765308 11.47 1.17958 10.7453C2.03475 9.24802 3.64682 8.23853 5.49496 8.23853H10.4616V10.7453H5.49496Z" fill="#1CB78D"></path>
  </symbol>
  <symbol fill="#1cb78d" xmlns="http://www.w3.org/2000/svg" viewBox="0 0 25 24" id="map-pin">
    <path d="M12.4279 1.49973C10.2407 1.50232 8.14378 2.37235 6.59717 3.91896C5.05056 5.46557 4.18053 7.56249 4.17793 9.74973C4.17793 16.8088 11.6779 22.1408 11.9973 22.3642C12.1236 22.4524 12.2739 22.4997 12.4279 22.4997C12.582 22.4997 12.7323 22.4524 12.8586 22.3642C13.1779 22.1408 20.6779 16.8088 20.6779 9.74973C20.6753 7.56249 19.8053 5.46557 18.2587 3.91896C16.7121 2.37235 14.6152 1.50232 12.4279 1.49973ZM12.4285 6.75C13.0218 6.75 13.6018 6.92594 14.0952 7.25559C14.5885 7.58523 14.9731 8.05377 15.2001 8.60195C15.4272 9.15013 15.4866 9.75333 15.3708 10.3353C15.2551 10.9172 14.9694 11.4518 14.5498 11.8713C14.1302 12.2909 13.5957 12.5766 13.0138 12.6924C12.4318 12.8081 11.8286 12.7487 11.2804 12.5216C10.7323 12.2946 10.2637 11.9101 9.93407 11.4167C9.60443 10.9234 9.42848 10.3433 9.42848 9.75C9.42847 9.35603 9.50606 8.96592 9.65682 8.60193C9.80758 8.23795 10.0286 7.90723 10.3071 7.62865C10.5857 7.35007 10.9164 7.1291 11.2804 6.97834C11.6444 6.82758 12.0345 6.74999 12.4285 6.75Z" fill="#1cb78d"></path>
  </symbol>
  <symbol fill="none" xmlns="http://www.w3.org/2000/svg" viewBox="0 0 24 24" id="notification">
    <path d="M9 21H15" stroke="white" stroke-width="1.5" stroke-linecap="round" stroke-linejoin="round"></path>
    <path d="M5.26855 9.74994C5.26731 8.86045 5.44213 7.97951 5.78294 7.1579C6.12375 6.33628 6.62381 5.59025 7.25429 4.9628C7.88476 4.33535 8.6332 3.83889 9.45644 3.50204C10.2797 3.16519 11.1615 2.99461 12.0509 3.00013C15.7625 3.02772 18.7312 6.11275 18.7312 9.83468V10.4999C18.7312 13.8577 19.4337 15.8061 20.0524 16.871C20.1191 16.9848 20.1546 17.1142 20.1553 17.246C20.156 17.3779 20.1219 17.5076 20.0565 17.6221C19.991 17.7366 19.8966 17.8318 19.7826 17.8982C19.6686 17.9645 19.5392 17.9996 19.4073 17.9999H4.59173C4.45985 17.9996 4.33038 17.9645 4.2164 17.8981C4.10242 17.8318 4.00795 17.7366 3.94252 17.622C3.8771 17.5075 3.84303 17.3778 3.84376 17.2459C3.84449 17.114 3.87999 16.9846 3.94667 16.8709C4.56573 15.8059 5.26855 13.8575 5.26855 10.4999L5.26855 9.74994Z" stroke="white" stroke-width="1.5" stroke-linecap="round" stroke-linejoin="round"></path>
  </symbol>
  <symbol fill="none" xmlns="http://www.w3.org/2000/svg" viewBox="0 0 24 24" id="twitter-outline">
    <path d="M11.9995 8.25027C11.9996 7.38867 12.2963 6.55337 12.8398 5.8848C13.3833 5.21624 14.1404 4.75517 14.9838 4.57913C15.8272 4.40309 16.7056 4.5228 17.4711 4.91814C18.2367 5.31348 18.8427 5.96034 19.1875 6.74997L22.4995 6.75L19.4749 9.77461C19.278 12.8168 17.9306 15.67 15.7065 17.7548C13.4823 19.8397 10.5481 20.9999 7.49953 21C4.49953 21 3.74953 19.875 3.74953 19.875C3.74953 19.875 6.74953 18.75 8.24953 16.5C8.24953 16.5 2.24953 13.5 3.74953 5.25C3.74953 5.25 7.49953 9 11.9982 9.75L11.9995 8.25027Z" stroke="white" stroke-width="1.5" stroke-linecap="round" stroke-linejoin="round"></path>
  </symbol>
  <symbol fill="none" xmlns="http://www.w3.org/2000/svg" viewBox="0 0 24 24" id="sunhorizon">
    <path d="M8.69898 5.53159L7.98145 3.79932" stroke="black" stroke-width="1.5" stroke-linecap="round" stroke-linejoin="round"></path>
    <path d="M4.0311 10.1993L2.29883 9.48181" stroke="black" stroke-width="1.5" stroke-linecap="round" stroke-linejoin="round"></path>
    <path d="M19.9688 10.1993L21.701 9.48181" stroke="black" stroke-width="1.5" stroke-linecap="round" stroke-linejoin="round"></path>
    <path d="M15.3008 5.53159L16.0183 3.79932" stroke="black" stroke-width="1.5" stroke-linecap="round" stroke-linejoin="round"></path>
    <path d="M22.5 15H1.5" stroke="black" stroke-width="1.5" stroke-linecap="round" stroke-linejoin="round"></path>
    <path d="M19.5 18.75H4.5" stroke="black" stroke-width="1.5" stroke-linecap="round" stroke-linejoin="round"></path>
    <path d="M6.57722 15.0001C6.34705 14.165 6.31285 13.2881 6.47728 12.4376C6.6417 11.5871 7.00032 10.7862 7.52517 10.0971C8.05002 9.40799 8.72692 8.84942 9.50311 8.46492C10.2793 8.08042 11.1338 7.88037 12 7.88037C12.8662 7.88037 13.7207 8.08042 14.4969 8.46492C15.2731 8.84942 15.95 9.40798 16.4748 10.0971C16.9997 10.7862 17.3583 11.5871 17.5227 12.4376C17.6872 13.288 17.653 14.165 17.4228 15" stroke="black" stroke-width="1.5" stroke-linecap="round" stroke-linejoin="round"></path>
  </symbol>
  <symbol fill="none" xmlns="http://www.w3.org/2000/svg" viewBox="0 0 25 24" id="users">
    <path d="M8.39285 15C11.0852 15 13.2679 12.8174 13.2679 10.125C13.2679 7.43261 11.0852 5.25 8.39285 5.25C5.70046 5.25 3.51785 7.43261 3.51785 10.125C3.51785 12.8174 5.70046 15 8.39285 15Z" stroke="#616161" stroke-width="1.5" stroke-linecap="round" stroke-linejoin="round"></path>
    <path d="M14.7127 5.4316C15.3833 5.24268 16.0865 5.19964 16.775 5.30538C17.4636 5.41113 18.1215 5.66319 18.7044 6.04461C19.2873 6.42602 19.7818 6.92793 20.1544 7.51652C20.527 8.10511 20.7692 8.76672 20.8646 9.45678C20.96 10.1468 20.9064 10.8493 20.7074 11.5169C20.5085 12.1845 20.1687 12.8018 19.7112 13.327C19.2536 13.8523 18.6887 14.2734 18.0547 14.562C17.4207 14.8506 16.7321 14.9999 16.0355 15" stroke="#616161" stroke-width="1.5" stroke-linecap="round" stroke-linejoin="round"></path>
    <path d="M1.64246 18.5059C2.40383 17.4229 3.4146 16.539 4.58944 15.9288C5.76428 15.3186 7.06868 15.0001 8.39253 15C9.71639 14.9999 11.0208 15.3184 12.1957 15.9285C13.3706 16.5386 14.3814 17.4225 15.1429 18.5054" stroke="#616161" stroke-width="1.5" stroke-linecap="round" stroke-linejoin="round"></path>
    <path d="M16.0355 15C17.3595 14.999 18.6642 15.3171 19.8392 15.9273C21.0142 16.5375 22.0248 17.4218 22.7856 18.5054" stroke="#616161" stroke-width="1.5" stroke-linecap="round" stroke-linejoin="round"></path>
  </symbol>
  <symbol fill="none" xmlns="http://www.w3.org/2000/svg" viewBox="0 0 24 24" id="youtube-outline">
    <path d="M15 12L10.5 9V15L15 12Z" stroke="white" stroke-width="1.5" stroke-linecap="round" stroke-linejoin="round"></path>
    <path d="M2.25 12C2.25 14.7895 2.5382 16.4263 2.75729 17.2675C2.81585 17.4972 2.92832 17.7097 3.08537 17.8873C3.24241 18.0649 3.43952 18.2026 3.66037 18.2888C6.79883 19.4949 12 19.4618 12 19.4618C12 19.4618 17.2011 19.4949 20.3396 18.2888C20.5604 18.2026 20.7576 18.0649 20.9146 17.8873C21.0717 17.7097 21.1841 17.4972 21.2427 17.2675C21.4618 16.4263 21.75 14.7896 21.75 12C21.75 9.21039 21.4618 7.57368 21.2427 6.73248C21.1841 6.50273 21.0717 6.29025 20.9146 6.11264C20.7576 5.93502 20.5605 5.79738 20.3396 5.71113C17.2012 4.50506 12 4.53818 12 4.53818C12 4.53818 6.79888 4.50506 3.66039 5.71112C3.43955 5.79737 3.24244 5.93501 3.08539 6.11262C2.92834 6.29024 2.81588 6.50272 2.75731 6.73246C2.53821 7.57366 2.25 9.21039 2.25 12Z" stroke="white" stroke-width="1.5" stroke-linecap="round" stroke-linejoin="round"></path>
  </symbol>
  <symbol fill="none" xmlns="http://www.w3.org/2000/svg" viewBox="0 0 24 24" id="map-pin-outline">
   <path d="M12 12.75C13.6569 12.75 15 11.4069 15 9.75C15 8.09315 13.6569 6.75 12 6.75C10.3431 6.75 9 8.09315 9 9.75C9 11.4069 10.3431 12.75 12 12.75Z" stroke="#616161" stroke-width="1.5" stroke-linecap="round" stroke-linejoin="round"/>
  <path d="M19.5 9.75C19.5 16.5 12 21.75 12 21.75C12 21.75 4.5 16.5 4.5 9.75C4.5 7.76088 5.29018 5.85322 6.6967 4.4467C8.10322 3.04018 10.0109 2.25 12 2.25C13.9891 2.25 15.8968 3.04018 17.3033 4.4467C18.7098 5.85322 19.5 7.76088 19.5 9.75V9.75Z" stroke="#616161" stroke-width="1.5" stroke-linecap="round" stroke-linejoin="round"/>
  </symbol>
  <symbol fill="none" xmlns="http://www.w3.org/2000/svg" viewBox="0 0 24 24" id="warning">
  <path fill-rule="evenodd" clip-rule="evenodd" d="M10.0003 3.33329C6.31843 3.33329 3.33366 6.31806 3.33366 9.99996C3.33366 13.6819 6.31843 16.6666 10.0003 16.6666C13.6822 16.6666 16.667 13.6819 16.667 9.99996C16.667 6.31806 13.6822 3.33329 10.0003 3.33329ZM1.66699 9.99996C1.66699 5.39759 5.39795 1.66663 10.0003 1.66663C14.6027 1.66663 18.3337 5.39759 18.3337 9.99996C18.3337 14.6023 14.6027 18.3333 10.0003 18.3333C5.39795 18.3333 1.66699 14.6023 1.66699 9.99996Z" fill="#9E9E9E"/>
<path fill-rule="evenodd" clip-rule="evenodd" d="M10.0003 5.41663C10.4606 5.41663 10.8337 5.78972 10.8337 6.24996V10.625C10.8337 11.0852 10.4606 11.4583 10.0003 11.4583C9.54009 11.4583 9.16699 11.0852 9.16699 10.625V6.24996C9.16699 5.78972 9.54009 5.41663 10.0003 5.41663Z" fill="#9E9E9E"/>
<path d="M10 14.375C10.5178 14.375 10.9375 13.9553 10.9375 13.4375C10.9375 12.9197 10.5178 12.5 10 12.5C9.48223 12.5 9.0625 12.9197 9.0625 13.4375C9.0625 13.9553 9.48223 14.375 10 14.375Z" fill="#9E9E9E"/>
  </symbol>
</svg>
